<svg fill="#000000" xmlns="http://www.w3.org/2000/svg"  viewBox="0 0 128 128" width="64px" height="64px"><path d="M114,1H64c-1.7,0-3,1.3-3,3v14.4c0,2.2,1.2,4.2,3,5.2c1.9,1.1,4.1,1.1,5.9,0c1.8-1.1,3.9-1.6,6-1.6c3.3,0,6.4,1.3,8.7,3.7 c2.3,2.4,3.5,5.5,3.3,8.9c-0.3,6.2-5.4,11.2-11.5,11.4c-2.3,0.1-4.5-0.5-6.5-1.6c-1.8-1.1-4.1-1.1-5.9,0c-1.9,1.1-3,3.1-3,5.2V61 l-11.5,0.1c1.7-2.9,2.6-6.3,2.4-9.8c-0.4-9.2-7.9-16.8-17.1-17.3c-5-0.2-9.7,1.5-13.3,4.9C18,42.4,16,47,16,52c0,3.2,0.8,6.3,2.4,9 H4c-1.7,0-3,1.3-3,3v50c0,7.2,5.8,13,13,13h50c1.7,0,3-1.3,3-3v-14.4c0-2.2-1.2-4.2-3-5.2c-1.9-1.1-4.1-1.1-5.9,0 c-1.8,1.1-3.9,1.6-6,1.6c-3.3,0-6.4-1.3-8.7-3.7c-2.3-2.4-3.5-5.5-3.3-8.9c0.3-6.2,5.4-11.2,11.5-11.4c2.3-0.1,4.5,0.5,6.5,1.6 c1.8,1.1,4.1,1.1,5.9,0c1.9-1.1,3-3.1,3-5.2V67l11.5,0c-1.7,3-2.6,6.3-2.4,9.8c0.4,9.2,7.9,16.8,17.1,17.3c5,0.2,9.7-1.5,13.3-4.9 c3.6-3.4,5.6-8.1,5.6-13c0-3.2-0.8-6.3-2.4-9H121v47c0,3.9-3.1,7-7,7H84c-1.7,0-3,1.3-3,3s1.3,3,3,3h30c7.2,0,13-5.8,13-13V14 C127,6.8,121.2,1,114,1z M51.3,76c-9.2,0.4-16.8,7.9-17.3,17.1c-0.2,5,1.5,9.7,4.9,13.3c3.4,3.6,8.1,5.6,13,5.6 c3.2,0,6.3-0.8,9-2.4V121H14c-3.9,0-7-3.1-7-7V67h11.4c2.2,0,4.2-1.2,5.2-3s1.1-4.1,0-5.9c-1.1-1.8-1.6-3.9-1.6-6 c0-3.3,1.3-6.4,3.7-8.7c2.4-2.3,5.6-3.5,8.9-3.3c6.2,0.3,11.2,5.4,11.4,11.5c0.1,2.3-0.5,4.5-1.6,6.5c-1.1,1.8-1.1,4.1,0,5.9 s3.1,3,5.2,3H61l0,11.5C58.1,76.7,54.7,75.9,51.3,76z M121,61h-11.4c-2.2,0-4.2,1.2-5.2,3c-1.1,1.9-1.1,4.1,0,5.9 c1.1,1.8,1.6,3.9,1.6,6c0,3.3-1.3,6.4-3.7,8.7c-2.4,2.3-5.6,3.5-8.9,3.3c-6.2-0.3-11.2-5.4-11.4-11.5c-0.1-2.3,0.5-4.5,1.6-6.5 c1.1-1.8,1.1-4.1,0-5.9c-1.1-1.9-3.1-3-5.2-3H67l0-11.5c2.9,1.7,6.3,2.6,9.8,2.4c9.2-0.4,16.8-7.9,17.3-17.1 c0.2-5-1.5-9.7-4.9-13.3C85.6,18,81,16,76,16c-3.2,0-6.3,0.8-9,2.4V7h47c3.9,0,7,3.1,7,7V61z"/></svg>